<svg width="140" height="40" viewBox="0 0 140 40" fill="none" xmlns="http://www.w3.org/2000/svg">
<path fill-rule="evenodd" clip-rule="evenodd" d="M1.58989 23.7287L17.6001 39.7511C17.6001 39.7511 13.1019 31.3477 17.6001 26.8473L12.0858 21.3288L12.0495 21.2914C11.2984 20.5012 11.2984 19.2506 12.0495 18.4604L12.0858 18.423L17.6001 12.9045C22.0968 8.40224 17.6001 0 17.6001 0L1.58989 16.0209C-0.529965 18.1442 -0.529965 21.605 1.58989 23.7283" fill="url(#paint0_linear_2010_2)"/>
<mask id="mask0_2010_2" style="mask-type:luminance" maskUnits="userSpaceOnUse" x="0" y="0" width="20" height="40">
<path d="M1.58989 23.7287L17.6001 39.7511C17.6001 39.7511 13.1019 31.3477 17.6001 26.8473L12.0858 21.3288L12.0495 21.2914C11.2984 20.5012 11.2984 19.2506 12.0495 18.4604L12.0858 18.423L17.6001 12.9045C22.0968 8.40224 17.6001 0 17.6001 0L1.58989 16.0209C-0.529965 18.1442 -0.529965 21.605 1.58989 23.7283" fill="white"/>
</mask>
<g mask="url(#mask0_2010_2)">
<path d="M22.0971 0H-0.529968V39.7507H22.0971V0Z" fill="url(#paint1_linear_2010_2)"/>
</g>
<path fill-rule="evenodd" clip-rule="evenodd" d="M15.6825 30.9104C15.8753 29.4368 16.4369 28.0116 17.6 26.8469L12.0858 21.3284L12.0495 21.291C11.2984 20.5008 11.2984 19.2502 12.0495 18.4601L12.0858 18.4226L10.5499 19.9597C8.94979 21.5595 8.94833 24.1722 10.5488 25.7735L15.6829 30.9112L15.6825 30.9104Z" fill="url(#paint2_linear_2010_2)"/>
<path fill-rule="evenodd" clip-rule="evenodd" d="M33.6092 16.0209L17.6005 0C17.6005 0 22.0972 8.40225 17.6005 12.9038L23.1148 18.4223L23.1511 18.4597C23.9022 19.2499 23.9022 20.5005 23.1511 21.2907L23.1148 21.3281L17.6005 26.8465C13.1023 31.3466 17.6005 39.7504 17.6005 39.7504L33.6092 23.728C35.7294 21.6047 35.7294 18.1438 33.6092 16.0205" fill="url(#paint3_linear_2010_2)"/>
<mask id="mask1_2010_2" style="mask-type:luminance" maskUnits="userSpaceOnUse" x="15" y="0" width="21" height="40">
<path d="M33.6092 16.0209L17.6005 0C17.6005 0 22.0972 8.40225 17.6005 12.9038L23.1148 18.4223L23.1511 18.4597C23.9022 19.2499 23.9022 20.5005 23.1511 21.2907L23.1148 21.3281L17.6005 26.8465C13.1023 31.3466 17.6005 39.7504 17.6005 39.7504L33.6092 23.728C35.7294 21.6047 35.7294 18.1438 33.6092 16.0205" fill="white"/>
</mask>
<g mask="url(#mask1_2010_2)">
<path d="M35.7298 0H13.1024V39.7507H35.7298V0Z" fill="url(#paint4_linear_2010_2)"/>
</g>
<path fill-rule="evenodd" clip-rule="evenodd" d="M16.8094 13.694L17.6004 12.9038C22.0971 8.40224 17.6004 0 17.6004 0L16.8094 0.790187V0.791287L1.58989 16.0224C-0.529965 18.1457 -0.529965 21.6065 1.58989 23.7298L1.70023 23.8402C0.053244 21.7679 0.305809 18.638 2.23579 16.7058L17.2364 1.69263C18.2423 3.97955 20.412 10.0872 16.8094 13.694Z" fill="#393939"/>
<mask id="mask2_2010_2" style="mask-type:luminance" maskUnits="userSpaceOnUse" x="0" y="0" width="20" height="24">
<path d="M16.8094 13.694L17.6004 12.9038C22.0971 8.40224 17.6004 0 17.6004 0L16.8094 0.790187V0.791287L1.58989 16.0224C-0.529965 18.1457 -0.529965 21.6065 1.58989 23.7298L1.70023 23.8402C0.053244 21.7679 0.305809 18.638 2.23579 16.7058L17.2364 1.69263C18.2423 3.97955 20.412 10.0872 16.8094 13.694Z" fill="white"/>
</mask>
<g mask="url(#mask2_2010_2)">
<path d="M22.0971 0H-0.529968V23.8402H22.0971V0Z" fill="#393939"/>
</g>
<path fill-rule="evenodd" clip-rule="evenodd" d="M18.3912 26.0572L17.6001 26.8473C13.1225 31.3295 17.5602 39.6756 17.599 39.7497V39.7508L17.6001 39.7497V39.7508L18.3912 38.9602V38.958L33.6092 23.7284C35.7295 21.6051 35.7295 18.1443 33.6092 16.021L33.4989 15.9106C35.1459 17.9829 34.8966 21.1102 32.9641 23.045L17.9634 38.0571C16.9575 35.7687 14.7897 29.6625 18.3912 26.0572Z" fill="#393939"/>
<mask id="mask3_2010_2" style="mask-type:luminance" maskUnits="userSpaceOnUse" x="15" y="15" width="21" height="25">
<path d="M18.3912 26.0572L17.6001 26.8473C13.1225 31.3295 17.5602 39.6756 17.599 39.7497V39.7508L17.6001 39.7497V39.7508L18.3912 38.9602V38.958L33.6092 23.7284C35.7295 21.6051 35.7295 18.1443 33.6092 16.021L33.4989 15.9106C35.1459 17.9829 34.8966 21.1102 32.9641 23.045L17.9634 38.0571C16.9575 35.7687 14.7897 29.6625 18.3912 26.0572Z" fill="white"/>
</mask>
<g mask="url(#mask3_2010_2)">
<path d="M35.7298 15.9105H13.1229V39.7507H35.7298V15.9105Z" fill="#393939"/>
</g>
<path fill-rule="evenodd" clip-rule="evenodd" d="M19.5183 8.84027C19.3251 10.3139 18.7639 11.7391 17.6 12.9038L23.1143 18.4223L23.1506 18.4597C23.9017 19.2499 23.9017 20.5005 23.1506 21.2907L23.1143 21.3281L24.6502 19.791C26.2503 18.1912 26.2518 15.5785 24.6513 13.9772L19.5175 8.83954L19.5183 8.84027Z" fill="url(#paint5_linear_2010_2)"/>
<path d="M41.4929 9.78598H45.2378L55.1754 26.9669V9.78598H57.9118V29.9651H54.311L44.2293 12.5249V29.9651H41.4929V9.78598Z" fill="#393939"/>
<path d="M63.6729 9.78598H66.4093V29.9651H63.6729V9.78598Z" fill="#393939"/>
<path d="M82.1658 29.9651H77.6434L70.1541 9.78598H73.0346L79.602 27.6587H80.2069L86.7743 9.78598H89.6548L82.1654 29.9651H82.1658Z" fill="#393939"/>
<path d="M93.4 29.9651V9.78598H102.762C107.14 9.78598 109.531 11.746 109.531 15.4072C109.531 18.4916 107.313 20.3941 103.338 20.798V21.0863C107.687 21.4033 109.963 24.2283 110.251 29.9651H107.37C107.053 23.998 105.21 21.8934 100.745 21.8934H96.136V29.9651H93.3996H93.4ZM96.1364 19.8753H101.897C104.835 19.8753 106.794 18.3188 106.794 15.9838C106.794 13.3895 105.498 12.0923 102.906 12.0923H96.1368V19.8757L96.1364 19.8753Z" fill="#393939"/>
<path d="M114.283 9.78598H117.02V29.9651H114.283V9.78598Z" fill="#393939"/>
<path d="M121.773 9.78598H124.797L130.241 17.7135H130.587L136.031 9.78598H139.056L132.287 19.4432L139.488 29.9651H136.464L130.559 21.1729H130.27L124.365 29.9651H121.341L128.542 19.4432L121.773 9.78598H121.773Z" fill="#393939"/>
<defs>
<linearGradient id="paint0_linear_2010_2" x1="9.16418e-05" y1="19.8754" x2="19.5986" y2="19.8754" gradientUnits="userSpaceOnUse">
<stop stop-color="#484F51"/>
<stop offset="1" stop-color="#282A2C"/>
</linearGradient>
<linearGradient id="paint1_linear_2010_2" x1="10.7838" y1="0" x2="10.7838" y2="39.7507" gradientUnits="userSpaceOnUse">
<stop/>
<stop offset="1" stop-color="#3C3C3B"/>
</linearGradient>
<linearGradient id="paint2_linear_2010_2" x1="9.34935" y1="24.6664" x2="17.6004" y2="24.6664" gradientUnits="userSpaceOnUse">
<stop/>
<stop offset="1" stop-color="#3C3C3B"/>
</linearGradient>
<linearGradient id="paint3_linear_2010_2" x1="15.6012" y1="19.875" x2="35.1994" y2="19.875" gradientUnits="userSpaceOnUse">
<stop stop-color="#484F51"/>
<stop offset="1" stop-color="#282A2C"/>
</linearGradient>
<linearGradient id="paint4_linear_2010_2" x1="24.4161" y1="39.7507" x2="24.4161" y2="0" gradientUnits="userSpaceOnUse">
<stop/>
<stop offset="1" stop-color="#3C3C3B"/>
</linearGradient>
<linearGradient id="paint5_linear_2010_2" x1="17.6004" y1="15.084" x2="25.8515" y2="15.084" gradientUnits="userSpaceOnUse">
<stop/>
<stop offset="1" stop-color="#3C3C3B"/>
</linearGradient>
</defs>
</svg>
